<?xml version="1.0" standalone="no"?>
<!DOCTYPE svg PUBLIC "-//W3C//DTD SVG 20010904//EN"
 "http://www.w3.org/TR/2001/REC-SVG-20010904/DTD/svg10.dtd">
<svg version="1.0" xmlns="http://www.w3.org/2000/svg"
 width="512.000000pt" height="512.000000pt" viewBox="0 0 512.000000 512.000000"
 preserveAspectRatio="xMidYMid meet">
<metadata>
Created by potrace 1.11, written by Peter Selinger 2001-2013
</metadata>
<g transform="translate(0.000000,512.000000) scale(0.100000,-0.100000)"
fill="#000000" stroke="none">
<path d="M839 3496 c-3 -3 -27 -8 -54 -11 -80 -10 -225 -62 -305 -109 -152
-90 -265 -203 -349 -350 -120 -211 -150 -423 -97 -691 7 -37 47 -148 68 -189
135 -267 391 -460 682 -513 23 -4 100 -7 171 -7 100 0 149 5 213 22 225 58
419 194 550 385 l33 47 59 -79 c121 -161 276 -271 466 -335 118 -39 299 -53
429 -33 119 18 256 72 366 142 81 52 212 181 259 253 18 28 36 52 40 52 3 0
16 -18 28 -39 65 -116 223 -252 377 -326 219 -105 470 -120 698 -44 325 109
574 400 627 737 12 71 14 224 5 287 -54 361 -317 664 -665 766 -88 26 -147 34
-260 34 -120 0 -187 -9 -275 -36 -199 -61 -384 -196 -497 -362 l-39 -58 -48
68 c-45 62 -145 165 -217 221 -53 41 -228 121 -314 143 -124 33 -340 33 -460
1 -227 -62 -438 -212 -550 -391 l-28 -44 -40 61 c-118 173 -327 318 -537 373
-73 18 -324 37 -336 25z"/>
</g>
</svg>
